<svg xmlns="http://www.w3.org/2000/svg" viewBox="0 0 64 64" role="img" aria-label="deployRocket logo">
  <defs>
    <linearGradient id="bg" x1="8" y1="56" x2="56" y2="8" gradientUnits="userSpaceOnUse">
      <stop stop-color="#0891b2" />
      <stop offset="1" stop-color="#67e8f9" />
    </linearGradient>
    <linearGradient id="rocket" x1="20" y1="46" x2="46" y2="18" gradientUnits="userSpaceOnUse">
      <stop stop-color="#ecfeff" />
      <stop offset="1" stop-color="#a5f3fc" />
    </linearGradient>
  </defs>
  <rect width="64" height="64" rx="16" fill="#05080f" />
  <rect x="5" y="5" width="54" height="54" rx="13" fill="url(#bg)" fill-opacity=".16" stroke="#22d3ee" stroke-opacity=".65" stroke-width="2" />
  <path d="M42.2 14.2c-7.2.9-13.1 4.6-17.5 11.1l-5.9.7-4.6 8.1 7.8-1.3 9.2 9.2-1.3 7.8 8.1-4.6.7-5.9c6.5-4.4 10.2-10.3 11.1-17.5l.7-6.3-6.3.7Zm-9.8 12.5a4.1 4.1 0 1 1 5.8 5.8 4.1 4.1 0 0 1-5.8-5.8Z" fill="url(#rocket)" />
  <path d="M18.9 40.5c-2.1.5-3.8 1.4-5 2.6-1.3 1.3-2.2 3-2.8 5.2 2.2-.6 4-1.5 5.2-2.8 1.2-1.2 2.1-2.9 2.6-5Z" fill="#bef264" />
</svg>
